<svg width="500" height="500" viewBox="0 0 500 500" fill="none" xmlns="http://www.w3.org/2000/svg">
<rect width="500" height="500" fill="black"/>
<rect x="288.715" y="263.121" width="5.18359" height="5.18359" fill="white"/>
<rect x="304.266" y="263.121" width="5.18359" height="5.18359" fill="white"/>
<rect x="293.898" y="273.488" width="5.18359" height="5.18359" fill="#B219B5"/>
<rect x="304.266" y="273.488" width="5.18359" height="5.18359" fill="#B219B5"/>
<rect x="299.082" y="283.855" width="5.18359" height="5.18359" fill="#EB5E4D"/>
<rect x="299.082" y="289.039" width="5.18359" height="5.18359" fill="#EB5E4D"/>
<rect x="299.082" y="294.222" width="5.18359" height="5.18359" fill="#FB7724"/>
<rect x="278.348" y="283.855" width="5.18359" height="5.18359" fill="#5BE601"/>
<rect x="278.348" y="289.039" width="5.18359" height="5.18359" fill="#5BE601"/>
<rect x="278.348" y="294.222" width="5.18359" height="5.18359" fill="#5BE601"/>
<rect x="304.266" y="294.222" width="5.18359" height="5.18359" fill="#F04363"/>
<rect x="304.266" y="299.406" width="5.18359" height="5.18359" fill="#F04363"/>
<rect x="304.266" y="304.59" width="5.18359" height="5.18359" fill="#F04363"/>
<rect x="304.266" y="309.773" width="5.18359" height="5.18359" fill="#F04363"/>
<rect x="304.266" y="314.957" width="5.18359" height="5.18359" fill="#F04363"/>
<rect x="288.715" y="320.14" width="5.18359" height="5.18359" fill="#F3BE00"/>
<rect x="309.449" y="257.937" width="5.18359" height="5.18359" fill="#D9D9D9"/>
<rect x="293.898" y="278.672" width="5.18359" height="5.18359" fill="#EB5E4D"/>
<rect x="309.449" y="268.305" width="5.18359" height="5.18359" fill="white"/>
<rect x="299.082" y="278.672" width="5.18359" height="5.18359" fill="#EB5E4D"/>
<rect x="309.449" y="278.672" width="5.18359" height="5.18359" fill="#CA289A"/>
<rect x="309.449" y="283.855" width="5.18359" height="5.18359" fill="#F04363"/>
<rect x="278.348" y="309.773" width="5.18359" height="5.18359" fill="#5BE601"/>
<rect x="309.449" y="304.59" width="5.18359" height="5.18359" fill="#FF4D4F"/>
<rect x="293.898" y="299.406" width="5.18359" height="5.18359" fill="#FB7724"/>
<rect x="299.082" y="299.406" width="5.18359" height="5.18359" fill="#FB7724"/>
<rect x="293.898" y="304.59" width="5.18359" height="5.18359" fill="#F3BE00"/>
<rect x="288.715" y="289.039" width="5.18359" height="5.18359" fill="#D8AC06"/>
<rect x="293.898" y="314.957" width="5.18359" height="5.18359" fill="#D8AC06"/>
<rect x="299.082" y="320.14" width="5.18359" height="5.18359" fill="#F3BE00"/>
<rect x="293.898" y="263.121" width="5.18359" height="5.18359" fill="white"/>
<rect x="309.449" y="263.121" width="5.18359" height="5.18359" fill="white"/>
<rect x="299.082" y="263.121" width="5.18359" height="5.18359" fill="white"/>
<rect x="314.633" y="273.488" width="5.18359" height="5.18359" fill="#B219B5"/>
<rect x="304.266" y="278.672" width="5.18359" height="5.18359" fill="#CA289A"/>
<rect x="314.633" y="283.855" width="5.18359" height="5.18359" fill="#F803B0"/>
<rect x="314.633" y="304.59" width="5.18359" height="5.18359" fill="#FD4C4E"/>
<rect x="288.715" y="314.957" width="5.18359" height="5.18359" fill="#F3BE00"/>
<rect x="314.633" y="299.406" width="5.18359" height="5.18359" fill="#FE3D5E"/>
<rect x="283.531" y="314.957" width="5.18359" height="5.18359" fill="#B7CF02"/>
<rect x="314.633" y="309.773" width="5.18359" height="5.18359" fill="#FC633C"/>
<rect x="314.633" y="314.957" width="5.18359" height="5.18359" fill="#FC8323"/>
<rect x="304.266" y="320.14" width="5.18359" height="5.18359" fill="#F04363"/>
<rect x="304.266" y="252.754" width="5.18359" height="5.18359" fill="white"/>
<rect x="319.816" y="263.121" width="5.18359" height="5.18359" fill="white"/>
<rect x="319.816" y="268.305" width="5.18359" height="5.18359" fill="white"/>
<rect x="319.816" y="273.488" width="5.18359" height="5.18359" fill="#B219B5"/>
<rect x="319.816" y="278.672" width="5.18359" height="5.18359" fill="#FE01B5"/>
<rect x="319.816" y="232.019" width="5.18359" height="5.18359" fill="white"/>
<rect x="319.816" y="237.203" width="5.18359" height="5.18359" fill="white"/>
<rect x="319.816" y="242.387" width="5.18359" height="5.18359" fill="white"/>
<rect x="319.816" y="247.57" width="5.18359" height="5.18359" fill="white"/>
<rect x="299.082" y="242.387" width="5.18359" height="5.18359" fill="white"/>
<rect x="299.082" y="247.57" width="5.18359" height="5.18359" fill="white"/>
<rect x="288.715" y="242.387" width="5.18359" height="5.18359" fill="white"/>
<rect x="293.898" y="237.203" width="5.18359" height="5.18359" fill="white"/>
<rect x="299.082" y="232.019" width="5.18359" height="5.18359" fill="white"/>
<rect x="304.266" y="232.019" width="5.18359" height="5.18359" fill="white"/>
<rect x="288.715" y="247.57" width="5.18359" height="5.18359" fill="white"/>
<rect x="288.715" y="252.754" width="5.18359" height="5.18359" fill="white"/>
<rect x="283.531" y="263.121" width="5.18359" height="5.18359" fill="white"/>
<rect x="283.531" y="278.672" width="5.18359" height="5.18359" fill="#B7CF02"/>
<rect x="288.715" y="278.672" width="5.18359" height="5.18359" fill="#D8AC06"/>
<rect x="278.348" y="278.672" width="5.18359" height="5.18359" fill="#5BE601"/>
<rect x="283.531" y="299.406" width="5.18359" height="5.18359" fill="#B7CF02"/>
<rect x="288.715" y="299.406" width="5.18359" height="5.18359" fill="#D8AC06"/>
<rect x="278.348" y="299.406" width="5.18359" height="5.18359" fill="#5BE601"/>
<rect x="283.531" y="257.937" width="5.18359" height="5.18359" fill="white"/>
<rect x="278.348" y="257.937" width="5.18359" height="5.18359" fill="white"/>
<rect x="278.348" y="252.754" width="5.18359" height="5.18359" fill="white"/>
<rect x="293.898" y="252.754" width="5.18359" height="5.18359" fill="white"/>
<rect x="283.531" y="247.57" width="5.18359" height="5.18359" fill="white"/>
<rect x="309.449" y="221.652" width="5.18359" height="5.18359" fill="white"/>
<rect x="314.633" y="206.102" width="5.18359" height="5.18359" fill="white"/>
<rect x="314.633" y="232.019" width="5.18359" height="5.18359" fill="white"/>
<rect x="314.633" y="242.387" width="5.18359" height="5.18359" fill="white"/>
<rect x="309.449" y="242.387" width="5.18359" height="5.18359" fill="white"/>
<rect x="314.633" y="221.652" width="5.18359" height="5.18359" fill="white"/>
<rect x="319.816" y="221.652" width="5.18359" height="5.18359" fill="white"/>
<rect x="288.715" y="221.652" width="5.18359" height="5.18359" fill="white"/>
<rect x="309.449" y="257.937" width="5.18359" height="5.18359" fill="white"/>
<rect x="293.898" y="221.652" width="5.18359" height="5.18359" fill="white"/>
<rect x="299.082" y="221.652" width="5.18359" height="5.18359" fill="white"/>
<rect x="273.164" y="232.019" width="5.18359" height="5.18359" fill="white"/>
<rect x="273.164" y="237.203" width="5.18359" height="5.18359" fill="white"/>
<rect x="278.348" y="237.203" width="5.18359" height="5.18359" fill="white"/>
<rect x="319.816" y="226.836" width="5.18359" height="5.18359" fill="white"/>
<rect x="319.816" y="232.019" width="5.18359" height="5.18359" fill="white"/>
<rect x="319.816" y="237.203" width="5.18359" height="5.18359" fill="white"/>
<rect x="319.816" y="242.387" width="5.18359" height="5.18359" fill="white"/>
<rect x="319.816" y="247.57" width="5.18359" height="5.18359" fill="white"/>
<rect x="319.816" y="221.652" width="5.18359" height="5.18359" fill="white"/>
<rect x="319.816" y="226.836" width="5.18359" height="5.18359" fill="white"/>
<rect x="319.816" y="190.551" width="5.18359" height="5.18359" fill="white"/>
<rect x="319.816" y="195.734" width="5.18359" height="5.18359" fill="white"/>
<rect x="319.816" y="206.102" width="5.18359" height="5.18359" fill="white"/>
<rect x="314.633" y="216.469" width="5.18359" height="5.18359" fill="white"/>
<rect x="319.816" y="180.184" width="5.18359" height="5.18359" fill="white"/>
<rect x="319.816" y="185.367" width="5.18359" height="5.18359" fill="white"/>
<rect x="319.816" y="190.551" width="5.18359" height="5.18359" fill="white"/>
<rect x="319.816" y="195.734" width="5.18359" height="5.18359" fill="white"/>
<rect x="319.816" y="200.918" width="5.18359" height="5.18359" fill="white"/>
<rect x="288.715" y="216.469" width="5.18359" height="5.18359" fill="white"/>
<rect x="319.816" y="180.184" width="5.18359" height="5.18359" fill="white"/>
<rect x="319.816" y="185.367" width="5.18359" height="5.18359" fill="white"/>
<rect x="293.898" y="206.102" width="5.18359" height="5.18359" fill="white"/>
<rect x="309.449" y="206.102" width="5.18359" height="5.18359" fill="white"/>
<rect x="288.715" y="206.102" width="5.18359" height="5.18359" fill="white"/>
<rect x="288.715" y="190.551" width="5.18359" height="5.18359" fill="white"/>
<rect x="288.715" y="195.734" width="5.18359" height="5.18359" fill="white"/>
<rect x="288.715" y="200.918" width="5.18359" height="5.18359" fill="white"/>
<rect x="293.898" y="216.469" width="5.18359" height="5.18359" fill="white"/>
<rect x="288.715" y="180.184" width="5.18359" height="5.18359" fill="white"/>
<rect x="288.715" y="185.367" width="5.18359" height="5.18359" fill="white"/>
<rect x="288.715" y="190.551" width="5.18359" height="5.18359" fill="white"/>
<rect x="288.715" y="195.734" width="5.18359" height="5.18359" fill="white"/>
<rect x="288.715" y="200.918" width="5.18359" height="5.18359" fill="white"/>
<rect x="304.266" y="206.102" width="5.18359" height="5.18359" fill="white"/>
<rect x="299.082" y="206.102" width="5.18359" height="5.18359" fill="white"/>
<rect x="314.633" y="175" width="5.18359" height="5.18359" fill="white"/>
<rect x="319.816" y="175" width="5.18359" height="5.18359" fill="white"/>
<rect x="293.898" y="175" width="5.18359" height="5.18359" fill="white"/>
<rect x="309.449" y="175" width="5.18359" height="5.18359" fill="white"/>
<rect x="288.715" y="175" width="5.18359" height="5.18359" fill="white"/>
<rect x="304.266" y="175" width="5.18359" height="5.18359" fill="white"/>
<rect x="299.082" y="175" width="5.18359" height="5.18359" fill="white"/>
<rect x="309.449" y="190.551" width="5.18359" height="5.18359" fill="white"/>
<rect x="304.266" y="190.551" width="5.18359" height="5.18359" fill="white"/>
<rect x="299.082" y="190.551" width="5.18359" height="5.18359" fill="white"/>
<rect x="309.449" y="195.734" width="5.18359" height="5.18359" fill="white"/>
<rect x="304.266" y="195.734" width="5.18359" height="5.18359" fill="white"/>
<rect x="299.082" y="195.734" width="5.18359" height="5.18359" fill="white"/>
<rect x="309.449" y="185.367" width="5.18359" height="5.18359" fill="white"/>
<rect x="304.266" y="185.367" width="5.18359" height="5.18359" fill="white"/>
<rect x="299.082" y="185.367" width="5.18359" height="5.18359" fill="white"/>
<rect x="288.715" y="180.184" width="5.18359" height="5.18359" fill="white"/>
<rect x="288.715" y="185.367" width="5.18359" height="5.18359" fill="white"/>
<rect x="201.242" y="320.14" width="5.18359" height="5.18359" fill="white"/>
<rect x="206.426" y="320.14" width="5.18359" height="5.18359" fill="white"/>
<rect x="206.426" y="304.59" width="5.18359" height="5.18359" fill="white"/>
<rect x="206.426" y="309.773" width="5.18359" height="5.18359" fill="white"/>
<rect x="206.426" y="314.957" width="5.18359" height="5.18359" fill="white"/>
<rect x="206.426" y="294.222" width="5.18359" height="5.18359" fill="white"/>
<rect x="206.426" y="299.406" width="5.18359" height="5.18359" fill="white"/>
<rect x="180.508" y="320.14" width="5.18359" height="5.18359" fill="white"/>
<rect x="196.058" y="320.14" width="5.18359" height="5.18359" fill="white"/>
<rect x="175.324" y="320.14" width="5.18359" height="5.18359" fill="white"/>
<rect x="175.324" y="304.59" width="5.18359" height="5.18359" fill="white"/>
<rect x="175.324" y="309.773" width="5.18359" height="5.18359" fill="white"/>
<rect x="175.324" y="314.957" width="5.18359" height="5.18359" fill="white"/>
<rect x="190.875" y="320.14" width="5.18359" height="5.18359" fill="white"/>
<rect x="185.691" y="320.14" width="5.18359" height="5.18359" fill="white"/>
<rect x="201.242" y="289.039" width="5.18359" height="5.18359" fill="white"/>
<rect x="206.426" y="289.039" width="5.18359" height="5.18359" fill="white"/>
<rect x="180.508" y="289.039" width="5.18359" height="5.18359" fill="white"/>
<rect x="196.058" y="289.039" width="5.18359" height="5.18359" fill="white"/>
<rect x="175.324" y="289.039" width="5.18359" height="5.18359" fill="white"/>
<rect x="190.875" y="289.039" width="5.18359" height="5.18359" fill="white"/>
<rect x="185.691" y="289.039" width="5.18359" height="5.18359" fill="white"/>
<rect x="196.058" y="304.59" width="5.18359" height="5.18359" fill="white"/>
<rect x="190.875" y="304.59" width="5.18359" height="5.18359" fill="white"/>
<rect x="185.691" y="304.59" width="5.18359" height="5.18359" fill="white"/>
<rect x="196.058" y="309.773" width="5.18359" height="5.18359" fill="white"/>
<rect x="190.875" y="309.773" width="5.18359" height="5.18359" fill="white"/>
<rect x="185.691" y="309.773" width="5.18359" height="5.18359" fill="white"/>
<rect x="196.058" y="299.406" width="5.18359" height="5.18359" fill="white"/>
<rect x="190.875" y="299.406" width="5.18359" height="5.18359" fill="white"/>
<rect x="185.691" y="299.406" width="5.18359" height="5.18359" fill="white"/>
<rect x="175.324" y="294.222" width="5.18359" height="5.18359" fill="white"/>
<rect x="175.324" y="299.406" width="5.18359" height="5.18359" fill="white"/>
<rect x="200.918" y="206.102" width="5.18359" height="5.18359" fill="white"/>
<rect x="206.102" y="206.102" width="5.18359" height="5.18359" fill="white"/>
<rect x="206.102" y="190.551" width="5.18359" height="5.18359" fill="white"/>
<rect x="206.102" y="195.734" width="5.18359" height="5.18359" fill="white"/>
<rect x="206.102" y="200.918" width="5.18359" height="5.18359" fill="white"/>
<rect x="206.102" y="180.184" width="5.18359" height="5.18359" fill="white"/>
<rect x="206.102" y="185.367" width="5.18359" height="5.18359" fill="white"/>
<rect x="180.184" y="206.102" width="5.18359" height="5.18359" fill="white"/>
<rect x="195.734" y="206.102" width="5.18359" height="5.18359" fill="white"/>
<rect x="175" y="206.102" width="5.18359" height="5.18359" fill="white"/>
<rect x="175" y="190.551" width="5.18359" height="5.18359" fill="white"/>
<rect x="175" y="195.734" width="5.18359" height="5.18359" fill="white"/>
<rect x="175" y="200.918" width="5.18359" height="5.18359" fill="white"/>
<rect x="190.551" y="206.102" width="5.18359" height="5.18359" fill="white"/>
<rect x="185.367" y="206.102" width="5.18359" height="5.18359" fill="white"/>
<rect x="200.918" y="175" width="5.18359" height="5.18359" fill="white"/>
<rect x="206.102" y="175" width="5.18359" height="5.18359" fill="white"/>
<rect x="180.184" y="175" width="5.18359" height="5.18359" fill="white"/>
<rect x="195.734" y="175" width="5.18359" height="5.18359" fill="white"/>
<rect x="175" y="175" width="5.18359" height="5.18359" fill="white"/>
<rect x="190.551" y="175" width="5.18359" height="5.18359" fill="white"/>
<rect x="185.367" y="175" width="5.18359" height="5.18359" fill="white"/>
<rect x="195.734" y="190.551" width="5.18359" height="5.18359" fill="white"/>
<rect x="190.551" y="190.551" width="5.18359" height="5.18359" fill="white"/>
<rect x="185.367" y="190.551" width="5.18359" height="5.18359" fill="white"/>
<rect x="195.734" y="195.734" width="5.18359" height="5.18359" fill="white"/>
<rect x="190.551" y="195.734" width="5.18359" height="5.18359" fill="white"/>
<rect x="185.367" y="195.734" width="5.18359" height="5.18359" fill="white"/>
<rect x="195.734" y="185.367" width="5.18359" height="5.18359" fill="white"/>
<rect x="190.551" y="185.367" width="5.18359" height="5.18359" fill="white"/>
<rect x="185.367" y="185.367" width="5.18359" height="5.18359" fill="white"/>
<rect x="175" y="180.184" width="5.18359" height="5.18359" fill="white"/>
<rect x="175" y="185.367" width="5.18359" height="5.18359" fill="white"/>
<rect x="195.734" y="278.672" width="5.18359" height="5.18359" fill="white"/>
<rect x="200.918" y="278.672" width="5.18359" height="5.18359" fill="white"/>
<rect x="195.734" y="226.836" width="5.18359" height="5.18359" fill="white"/>
<rect x="211.285" y="263.121" width="5.18359" height="5.18359" fill="white"/>
<rect x="216.469" y="268.305" width="5.18359" height="5.18359" fill="white"/>
<rect x="200.918" y="247.57" width="5.18359" height="5.18359" fill="white"/>
<rect x="216.469" y="242.387" width="5.18359" height="5.18359" fill="#01A2FD"/>
<rect x="180.184" y="278.672" width="5.18359" height="5.18359" fill="white"/>
<rect x="190.551" y="278.672" width="5.18359" height="5.18359" fill="white"/>
<rect x="175" y="278.672" width="5.18359" height="5.18359" fill="white"/>
<rect x="180.184" y="257.937" width="5.18359" height="5.18359" fill="white"/>
<rect x="200.918" y="273.488" width="5.18359" height="5.18359" fill="white"/>
<rect x="180.184" y="263.121" width="5.18359" height="5.18359" fill="white"/>
<rect x="185.367" y="273.488" width="5.18359" height="5.18359" fill="white"/>
<rect x="206.102" y="278.672" width="5.18359" height="5.18359" fill="white"/>
<rect x="216.145" y="206.102" width="5.18359" height="5.18359" fill="#01A2FD"/>
<rect x="216.469" y="180.184" width="5.18359" height="5.18359" fill="#01A1FD"/>
<rect x="237.203" y="180.184" width="5.18359" height="5.18359" fill="#0083FB"/>
<rect x="232.02" y="185.367" width="5.18359" height="5.18359" fill="#01A2FD"/>
<rect x="242.387" y="175" width="5.18359" height="5.18359" fill="#0083FB"/>
<rect x="242.387" y="180.184" width="5.18359" height="5.18359" fill="#0083FB"/>
<rect x="252.754" y="180.184" width="5.18359" height="5.18359" fill="#000AFF"/>
<rect x="257.937" y="175" width="5.18359" height="5.18359" fill="#0038FF"/>
<rect x="263.121" y="180.184" width="5.18359" height="5.18359" fill="white"/>
<rect x="268.304" y="175" width="5.18359" height="5.18359" fill="white"/>
<rect x="273.488" y="180.184" width="5.18359" height="5.18359" fill="white"/>
<rect x="257.937" y="180.184" width="5.18359" height="5.18359" fill="#0038FF"/>
<rect x="268.304" y="190.551" width="5.18359" height="5.18359" fill="white"/>
<rect x="278.672" y="190.551" width="5.18359" height="5.18359" fill="white"/>
<rect x="273.488" y="190.551" width="5.18359" height="5.18359" fill="white"/>
<rect x="263.121" y="195.734" width="5.18359" height="5.18359" fill="white"/>
<rect x="268.304" y="195.734" width="5.18359" height="5.18359" fill="white"/>
<rect x="252.754" y="190.551" width="5.18359" height="5.18359" fill="#0083FB"/>
<rect x="242.387" y="190.551" width="5.18359" height="5.18359" fill="#0083FB"/>
<rect x="257.937" y="190.551" width="5.18359" height="5.18359" fill="#0038FF"/>
<rect x="263.121" y="185.367" width="5.18359" height="5.18359" fill="white"/>
<rect x="273.488" y="185.367" width="5.18359" height="5.18359" fill="white"/>
<rect x="278.672" y="185.367" width="5.18359" height="5.18359" fill="white"/>
<rect x="226.836" y="175" width="5.18359" height="5.18359" fill="#00A2FD"/>
<rect x="232.02" y="175" width="5.18359" height="5.18359" fill="#00ABF5"/>
<rect x="216.145" y="200.918" width="5.18359" height="5.18359" fill="#01A2FD"/>
<rect x="216.145" y="211.285" width="5.18359" height="5.18359" fill="#00A3FB"/>
<rect x="185.367" y="232.019" width="5.18359" height="5.18359" fill="white"/>
<rect x="221.652" y="185.367" width="5.18359" height="5.18359" fill="#01A2FD"/>
<rect x="221.328" y="200.918" width="5.18359" height="5.18359" fill="#01A2FD"/>
<rect x="226.512" y="206.102" width="5.18359" height="5.18359" fill="#01A2FD"/>
<rect x="221.328" y="221.652" width="5.18359" height="5.18359" fill="#01A2FD"/>
<rect x="185.367" y="252.754" width="5.18359" height="5.18359" fill="white"/>
<rect x="200.918" y="257.937" width="5.18359" height="5.18359" fill="white"/>
<rect x="216.469" y="237.203" width="5.18359" height="5.18359" fill="#01A2FD"/>
<rect x="216.469" y="232.019" width="5.18359" height="5.18359" fill="#01A2FD"/>
<rect x="206.102" y="257.937" width="5.18359" height="5.18359" fill="white"/>
<rect x="226.836" y="257.937" width="5.18359" height="5.18359" fill="#01A2FD"/>
<rect x="216.469" y="226.836" width="5.18359" height="5.18359" fill="#01A2FD"/>
<rect x="211.285" y="226.836" width="5.18359" height="5.18359" fill="white"/>
<rect x="175" y="242.387" width="5.18359" height="5.18359" fill="white"/>
<rect x="221.328" y="216.469" width="5.18359" height="5.18359" fill="#01A2FD"/>
<path d="M216.469 257.937H221.652V263.121H216.469V257.937Z" fill="#01A2FD"/>
<rect x="206.102" y="268.305" width="5.18359" height="5.18359" fill="white"/>
<rect x="206.102" y="247.57" width="5.18359" height="5.18359" fill="white"/>
<rect x="211.285" y="232.019" width="5.18359" height="5.18359" fill="white"/>
<rect x="190.551" y="226.836" width="5.18359" height="5.18359" fill="white"/>
<rect x="221.652" y="190.551" width="5.18359" height="5.18359" fill="#01A2FD"/>
<rect x="226.512" y="211.285" width="5.18359" height="5.18359" fill="#01A2FD"/>
<rect x="211.285" y="273.488" width="5.18359" height="5.18359" fill="white"/>
<rect x="216.469" y="252.754" width="5.18359" height="5.18359" fill="#01A2FD"/>
<rect x="195.734" y="273.488" width="5.18359" height="5.18359" fill="white"/>
<rect x="216.469" y="247.57" width="5.18359" height="5.18359" fill="#01A2FD"/>
<rect x="206.102" y="237.203" width="5.18359" height="5.18359" fill="white"/>
<rect x="190.551" y="268.305" width="5.18359" height="5.18359" fill="white"/>
<rect x="221.652" y="257.937" width="5.18359" height="5.18359" fill="#01A2FD"/>
<rect x="175" y="263.121" width="5.18359" height="5.18359" fill="white"/>
<rect x="185.367" y="221.652" width="5.18359" height="5.18359" fill="white"/>
<rect x="211.285" y="216.469" width="5.18359" height="5.18359" fill="white"/>
<rect x="195.734" y="216.469" width="5.18359" height="5.18359" fill="white"/>
<rect x="180.184" y="221.652" width="5.18359" height="5.18359" fill="white"/>
<rect x="195.734" y="211.285" width="5.18359" height="5.18359" fill="white"/>
<rect x="206.102" y="216.469" width="5.18359" height="5.18359" fill="white"/>
<rect x="200.918" y="216.469" width="5.18359" height="5.18359" fill="white"/>
<rect x="195.734" y="247.57" width="5.18359" height="5.18359" fill="white"/>
<rect x="206.102" y="226.836" width="5.18359" height="5.18359" fill="white"/>
<rect x="200.918" y="226.836" width="5.18359" height="5.18359" fill="white"/>
<rect x="226.512" y="221.652" width="5.18359" height="5.18359" fill="#01A2FD"/>
<rect x="180.184" y="252.754" width="5.18359" height="5.18359" fill="white"/>
<rect x="190.551" y="247.57" width="5.18359" height="5.18359" fill="white"/>
<rect x="185.367" y="242.387" width="5.18359" height="5.18359" fill="white"/>
<rect x="190.551" y="237.203" width="5.18359" height="5.18359" fill="white"/>
<rect x="180.184" y="237.203" width="5.18359" height="5.18359" fill="white"/>
<rect x="185.367" y="226.836" width="5.18359" height="5.18359" fill="white"/>
<rect x="185.367" y="237.203" width="5.18359" height="5.18359" fill="white"/>
<rect x="283.531" y="232.019" width="5.18359" height="5.18359" fill="white"/>
<rect x="283.531" y="226.836" width="5.18359" height="5.18359" fill="white"/>
<rect x="278.348" y="226.836" width="5.18359" height="5.18359" fill="white"/>
<rect x="283.531" y="221.652" width="5.18359" height="5.18359" fill="white"/>
<rect x="319.816" y="283.855" width="5.18359" height="5.18359" fill="#FD1395"/>
<rect x="319.816" y="289.039" width="5.18359" height="5.18359" fill="#FE257C"/>
<rect x="319.816" y="294.222" width="5.18359" height="5.18359" fill="#FE316D"/>
<rect x="319.816" y="314.957" width="5.18359" height="5.18359" fill="#FD7034"/>
<rect x="283.531" y="309.773" width="5.18359" height="5.18359" fill="#B7CF02"/>
<rect x="319.816" y="309.773" width="5.18359" height="5.18359" fill="#FD5A43"/>
<rect x="278.348" y="314.957" width="5.18359" height="5.18359" fill="#5BE601"/>
<rect x="314.633" y="320.14" width="5.18359" height="5.18359" fill="#FA9516"/>
<rect x="216.469" y="299.406" width="5.18359" height="5.18359" fill="#00A1FA"/>
<rect x="216.469" y="294.222" width="5.18359" height="5.18359" fill="#00A2FB"/>
<rect x="262.797" y="289.039" width="5.18359" height="5.18359" fill="#04EE02"/>
<rect x="247.57" y="309.773" width="5.18359" height="5.18359" fill="#01DCA5"/>
<rect x="237.203" y="304.59" width="5.18359" height="5.18359" fill="#00CDC9"/>
<rect x="257.937" y="309.773" width="5.18359" height="5.18359" fill="#03EE03"/>
<rect x="257.937" y="304.59" width="5.18359" height="5.18359" fill="#03EE03"/>
<rect x="263.121" y="304.59" width="5.18359" height="5.18359" fill="#04EE02"/>
<rect x="252.754" y="314.957" width="5.18359" height="5.18359" fill="#04EE02"/>
<rect x="232.02" y="314.957" width="5.18359" height="5.18359" fill="#00E683"/>
<rect x="273.164" y="299.406" width="5.18359" height="5.18359" fill="#5BE601"/>
<rect x="273.164" y="289.039" width="5.18359" height="5.18359" fill="#5BE601"/>
<rect x="273.164" y="294.222" width="5.18359" height="5.18359" fill="#5BE601"/>
<rect x="267.98" y="294.222" width="5.18359" height="5.18359" fill="#5BE601"/>
<rect x="257.613" y="289.039" width="5.18359" height="5.18359" fill="#03EE03"/>
<rect x="267.98" y="278.672" width="5.18359" height="5.18359" fill="#5BE601"/>
<rect x="267.98" y="283.855" width="5.18359" height="5.18359" fill="#5BE601"/>
<rect x="257.613" y="273.488" width="5.18359" height="5.18359" fill="#03EE03"/>
<rect x="262.797" y="278.672" width="5.18359" height="5.18359" fill="#27EB00"/>
<rect x="278.348" y="273.488" width="5.18359" height="5.18359" fill="#B219B5"/>
<rect x="242.387" y="299.406" width="5.18359" height="5.18359" fill="#01DCA5"/>
<rect x="257.613" y="283.855" width="5.18359" height="5.18359" fill="#03EE03"/>
<rect x="247.57" y="294.222" width="5.18359" height="5.18359" fill="#01DCA5"/>
<rect x="242.387" y="294.222" width="5.18359" height="5.18359" fill="#01DCA5"/>
<rect x="247.57" y="289.039" width="5.18359" height="5.18359" fill="#01DCA5"/>
<rect x="257.613" y="278.672" width="5.18359" height="5.18359" fill="#03EE03"/>
<rect x="262.797" y="268.305" width="5.18359" height="5.18359" fill="white"/>
<rect x="267.98" y="257.937" width="5.18359" height="5.18359" fill="white"/>
<rect x="267.98" y="263.121" width="5.18359" height="5.18359" fill="white"/>
<rect x="267.98" y="268.305" width="5.18359" height="5.18359" fill="white"/>
<rect x="262.797" y="257.937" width="5.18359" height="5.18359" fill="white"/>
<rect x="257.613" y="263.121" width="5.18359" height="5.18359" fill="#0CED01"/>
<rect x="257.613" y="257.937" width="5.18359" height="5.18359" fill="#0CED01"/>
<rect x="267.98" y="247.57" width="5.18359" height="5.18359" fill="white"/>
<rect x="267.98" y="252.754" width="5.18359" height="5.18359" fill="white"/>
<rect x="262.797" y="247.57" width="5.18359" height="5.18359" fill="white"/>
<rect x="257.613" y="247.57" width="5.18359" height="5.18359" fill="#000AFF"/>
<rect x="257.613" y="242.387" width="5.18359" height="5.18359" fill="#000AFF"/>
<rect x="252.43" y="242.387" width="5.18359" height="5.18359" fill="#000AFF"/>
<rect x="247.246" y="242.387" width="5.18359" height="5.18359" fill="#000AFF"/>
<rect x="273.164" y="273.488" width="5.18359" height="5.18359" fill="#B219B5"/>
<rect x="216.469" y="289.039" width="5.18359" height="5.18359" fill="#00A1FB"/>
<rect x="232.02" y="299.406" width="5.18359" height="5.18359" fill="#00CDC9"/>
<rect x="232.02" y="294.222" width="5.18359" height="5.18359" fill="#00CDC9"/>
<rect x="232.02" y="289.039" width="5.18359" height="5.18359" fill="#00CDC9"/>
<rect x="216.469" y="283.855" width="5.18359" height="5.18359" fill="#01A1FA"/>
<rect x="216.469" y="278.672" width="5.18359" height="5.18359" fill="#029EF3"/>
<rect x="252.754" y="299.406" width="5.18359" height="5.18359" fill="#04EE02"/>
<rect x="221.652" y="309.773" width="5.18359" height="5.18359" fill="#00C9D3"/>
<rect x="221.652" y="314.957" width="5.18359" height="5.18359" fill="#00D5C2"/>
<rect x="247.57" y="320.14" width="5.18359" height="5.18359" fill="#01DCA5"/>
<rect x="278.348" y="320.14" width="5.18359" height="5.18359" fill="#5BE601"/>
<rect x="262.797" y="320.14" width="5.18359" height="5.18359" fill="#00EA58"/>
<rect x="273.164" y="320.14" width="5.18359" height="5.18359" fill="#5BE601"/>
<rect x="267.98" y="314.957" width="5.18359" height="5.18359" fill="#5BE601"/>
<rect x="267.98" y="320.14" width="5.18359" height="5.18359" fill="#5BE601"/>
<rect x="273.164" y="309.773" width="5.18359" height="5.18359" fill="#5BE601"/>
<rect x="273.164" y="283.855" width="5.18359" height="5.18359" fill="#5BE601"/>
<rect x="226.836" y="278.672" width="5.18359" height="5.18359" fill="#01D3C2"/>
<rect x="237.203" y="283.855" width="5.18359" height="5.18359" fill="#00CDC9"/>
<rect x="232.02" y="283.855" width="5.18359" height="5.18359" fill="#00CDC9"/>
<rect x="232.02" y="278.672" width="5.18359" height="5.18359" fill="#00CDC9"/>
<rect x="226.836" y="273.488" width="5.18359" height="5.18359" fill="#01D3C2"/>
<rect x="232.02" y="273.488" width="5.18359" height="5.18359" fill="#00CDC9"/>
<rect x="232.02" y="268.305" width="5.18359" height="5.18359" fill="#00CDC9"/>
<rect x="237.203" y="268.305" width="5.18359" height="5.18359" fill="#00CDC9"/>
<rect x="242.063" y="257.937" width="5.18359" height="5.18359" fill="#01DCA5"/>
<rect x="242.063" y="252.754" width="5.18359" height="5.18359" fill="#01DCA5"/>
<rect x="242.063" y="247.57" width="5.18359" height="5.18359" fill="#04AEF3"/>
<rect x="247.246" y="247.57" width="5.18359" height="5.18359" fill="#000AFF"/>
<rect x="232.02" y="263.121" width="5.18359" height="5.18359" fill="#00CDC9"/>
<rect x="262.797" y="232.019" width="5.18359" height="5.18359" fill="white"/>
<rect x="262.797" y="226.836" width="5.18359" height="5.18359" fill="white"/>
<rect x="267.98" y="237.203" width="5.18359" height="5.18359" fill="white"/>
<rect x="267.98" y="232.019" width="5.18359" height="5.18359" fill="white"/>
<rect x="267.98" y="226.836" width="5.18359" height="5.18359" fill="white"/>
<rect x="267.98" y="221.652" width="5.18359" height="5.18359" fill="white"/>
<rect x="267.98" y="216.469" width="5.18359" height="5.18359" fill="white"/>
<rect x="267.98" y="211.285" width="5.18359" height="5.18359" fill="white"/>
<rect x="267.98" y="206.102" width="5.18359" height="5.18359" fill="white"/>
<rect x="273.164" y="200.918" width="5.18359" height="5.18359" fill="white"/>
<rect x="278.348" y="206.102" width="5.18359" height="5.18359" fill="white"/>
<rect x="278.348" y="216.469" width="5.18359" height="5.18359" fill="white"/>
<rect x="247.246" y="226.836" width="5.18359" height="5.18359" fill="#00A2FA"/>
<rect x="252.43" y="226.836" width="5.18359" height="5.18359" fill="#00A2FA"/>
<rect x="252.43" y="221.652" width="5.18359" height="5.18359" fill="#00A2FA"/>
<rect x="257.613" y="221.652" width="5.18359" height="5.18359" fill="#000AFF"/>
<rect x="247.246" y="221.652" width="5.18359" height="5.18359" fill="#00A2FA"/>
<rect x="242.063" y="226.836" width="5.18359" height="5.18359" fill="#04AEF3"/>
<rect x="232.02" y="232.019" width="5.18359" height="5.18359" fill="#04AEF3"/>
<rect x="237.203" y="232.019" width="5.18359" height="5.18359" fill="#04AEF3"/>
<rect x="226.836" y="232.019" width="5.18359" height="5.18359" fill="#04AEF3"/>
<rect x="232.02" y="237.203" width="5.18359" height="5.18359" fill="#04AEF3"/>
<rect x="237.203" y="237.203" width="5.18359" height="5.18359" fill="#04AEF3"/>
<rect x="232.02" y="242.387" width="5.18359" height="5.18359" fill="#04AEF3"/>
<rect x="237.203" y="242.387" width="5.18359" height="5.18359" fill="#04AEF3"/>
<rect x="226.836" y="237.203" width="5.18359" height="5.18359" fill="#04AEF3"/>
<rect x="221.652" y="232.019" width="5.18359" height="5.18359" fill="#02D0C7"/>
<rect x="221.652" y="237.203" width="5.18359" height="5.18359" fill="#02D0C7"/>
<rect x="236.879" y="221.652" width="5.18359" height="5.18359" fill="#04AEF3"/>
<rect x="247.246" y="216.469" width="5.18359" height="5.18359" fill="#00A2FA"/>
<rect x="247.246" y="211.285" width="5.18359" height="5.18359" fill="#00A2FA"/>
<rect x="247.246" y="206.102" width="5.18359" height="5.18359" fill="#000AFF"/>
<rect x="247.246" y="200.918" width="5.18359" height="5.18359" fill="#000AFF"/>
<rect x="247.246" y="195.734" width="5.18359" height="5.18359" fill="#000AFF"/>
<rect x="252.43" y="200.918" width="5.18359" height="5.18359" fill="#000AFF"/>
<rect x="252.43" y="195.734" width="5.18359" height="5.18359" fill="#000AFF"/>
<rect x="236.879" y="211.285" width="5.18359" height="5.18359" fill="#04AEF3"/>
<rect x="231.696" y="211.285" width="5.18359" height="5.18359" fill="#04AEF3"/>
<rect x="236.879" y="206.102" width="5.18359" height="5.18359" fill="#04AEF3"/>
<rect x="236.879" y="200.918" width="5.18359" height="5.18359" fill="#04AEF3"/>
<rect x="236.879" y="195.734" width="5.18359" height="5.18359" fill="#04AEF3"/>
<rect x="242.063" y="195.734" width="5.18359" height="5.18359" fill="#04AEF3"/>
<rect x="257.613" y="206.102" width="5.18359" height="5.18359" fill="#000AFF"/>
<rect x="252.43" y="211.285" width="5.18359" height="5.18359" fill="#000AFF"/>
<rect x="262.797" y="211.285" width="5.18359" height="5.18359" fill="white"/>
<rect x="257.613" y="200.918" width="5.18359" height="5.18359" fill="#000AFF"/>
<rect x="247.57" y="268.305" width="5.18359" height="5.18359" fill="#01DCA5"/>
<rect x="247.57" y="263.121" width="5.18359" height="5.18359" fill="#01DCA5"/>
<rect x="252.43" y="252.754" width="5.18359" height="5.18359" fill="#0CED01"/>
<rect x="226.836" y="252.754" width="5.18359" height="5.18359" fill="#02D0C7"/>
<rect x="232.02" y="252.754" width="5.18359" height="5.18359" fill="#02D0C7"/>
<rect x="237.203" y="278.672" width="5.18359" height="5.18359" fill="#00CDC9"/>
<rect x="242.387" y="283.855" width="5.18359" height="5.18359" fill="#01DCA5"/>
<rect x="247.57" y="278.672" width="5.18359" height="5.18359" fill="#01DCA5"/>
<rect x="232.02" y="309.773" width="5.18359" height="5.18359" fill="#01D7BA"/>
<rect x="237.203" y="314.957" width="5.18359" height="5.18359" fill="#00CDC9"/>
<rect x="226.836" y="314.957" width="5.18359" height="5.18359" fill="#00E3A5"/>
<rect x="226.836" y="309.773" width="5.18359" height="5.18359" fill="#00E1AE"/>
<rect x="221.652" y="304.59" width="5.18359" height="5.18359" fill="#00C2DD"/>
<rect x="252.754" y="320.14" width="5.18359" height="5.18359" fill="#00EA58"/>
<rect x="288.715" y="263.121" width="5.18359" height="5.18359" fill="white"/>
<rect x="304.266" y="263.121" width="5.18359" height="5.18359" fill="white"/>
<rect x="293.898" y="273.488" width="5.18359" height="5.18359" fill="#B219B5"/>
<rect x="304.266" y="273.488" width="5.18359" height="5.18359" fill="#B219B5"/>
<rect x="299.082" y="283.855" width="5.18359" height="5.18359" fill="#EB5E4D"/>
<rect x="299.082" y="289.039" width="5.18359" height="5.18359" fill="#EB5E4D"/>
<rect x="299.082" y="294.222" width="5.18359" height="5.18359" fill="#FB7724"/>
<rect x="278.348" y="283.855" width="5.18359" height="5.18359" fill="#5BE601"/>
<rect x="278.348" y="289.039" width="5.18359" height="5.18359" fill="#5BE601"/>
<rect x="278.348" y="294.222" width="5.18359" height="5.18359" fill="#5BE601"/>
<rect x="304.266" y="294.222" width="5.18359" height="5.18359" fill="#F04363"/>
<rect x="304.266" y="299.406" width="5.18359" height="5.18359" fill="#F04363"/>
<rect x="304.266" y="304.59" width="5.18359" height="5.18359" fill="#F04363"/>
<rect x="304.266" y="309.773" width="5.18359" height="5.18359" fill="#F04363"/>
<rect x="304.266" y="314.957" width="5.18359" height="5.18359" fill="#F04363"/>
<rect x="288.715" y="320.14" width="5.18359" height="5.18359" fill="#F3BE00"/>
<rect x="309.449" y="257.937" width="5.18359" height="5.18359" fill="#D9D9D9"/>
<rect x="293.898" y="278.672" width="5.18359" height="5.18359" fill="#EB5E4D"/>
<rect x="309.449" y="268.305" width="5.18359" height="5.18359" fill="white"/>
<rect x="299.082" y="278.672" width="5.18359" height="5.18359" fill="#EB5E4D"/>
<rect x="309.449" y="278.672" width="5.18359" height="5.18359" fill="#CA289A"/>
<rect x="309.449" y="283.855" width="5.18359" height="5.18359" fill="#F04363"/>
<rect x="278.348" y="309.773" width="5.18359" height="5.18359" fill="#5BE601"/>
<rect x="309.449" y="304.59" width="5.18359" height="5.18359" fill="#FF4D4F"/>
<rect x="293.898" y="299.406" width="5.18359" height="5.18359" fill="#FB7724"/>
<rect x="299.082" y="299.406" width="5.18359" height="5.18359" fill="#FB7724"/>
<rect x="293.898" y="304.59" width="5.18359" height="5.18359" fill="#F3BE00"/>
<rect x="288.715" y="289.039" width="5.18359" height="5.18359" fill="#D8AC06"/>
<rect x="293.898" y="314.957" width="5.18359" height="5.18359" fill="#D8AC06"/>
<rect x="299.082" y="320.14" width="5.18359" height="5.18359" fill="#F3BE00"/>
<rect x="293.898" y="263.121" width="5.18359" height="5.18359" fill="white"/>
<rect x="309.449" y="263.121" width="5.18359" height="5.18359" fill="white"/>
<rect x="299.082" y="263.121" width="5.18359" height="5.18359" fill="white"/>
<rect x="314.633" y="273.488" width="5.18359" height="5.18359" fill="#B219B5"/>
<rect x="304.266" y="278.672" width="5.18359" height="5.18359" fill="#CA289A"/>
<rect x="314.633" y="283.855" width="5.18359" height="5.18359" fill="#F803B0"/>
<rect x="314.633" y="304.59" width="5.18359" height="5.18359" fill="#FD4C4E"/>
<rect x="288.715" y="314.957" width="5.18359" height="5.18359" fill="#F3BE00"/>
<rect x="314.633" y="299.406" width="5.18359" height="5.18359" fill="#FE3D5E"/>
<rect x="283.531" y="314.957" width="5.18359" height="5.18359" fill="#B7CF02"/>
<rect x="314.633" y="309.773" width="5.18359" height="5.18359" fill="#FC633C"/>
<rect x="314.633" y="314.957" width="5.18359" height="5.18359" fill="#FC8323"/>
<rect x="304.266" y="320.14" width="5.18359" height="5.18359" fill="#F04363"/>
<rect x="304.266" y="252.754" width="5.18359" height="5.18359" fill="white"/>
<rect x="319.816" y="263.121" width="5.18359" height="5.18359" fill="white"/>
<rect x="319.816" y="268.305" width="5.18359" height="5.18359" fill="white"/>
<rect x="319.816" y="273.488" width="5.18359" height="5.18359" fill="#B219B5"/>
<rect x="319.816" y="278.672" width="5.18359" height="5.18359" fill="#FE01B5"/>
<rect x="319.816" y="232.019" width="5.18359" height="5.18359" fill="white"/>
<rect x="319.816" y="237.203" width="5.18359" height="5.18359" fill="white"/>
<rect x="319.816" y="242.387" width="5.18359" height="5.18359" fill="white"/>
<rect x="319.816" y="247.57" width="5.18359" height="5.18359" fill="white"/>
<rect x="299.082" y="242.387" width="5.18359" height="5.18359" fill="white"/>
<rect x="299.082" y="247.57" width="5.18359" height="5.18359" fill="white"/>
<rect x="288.715" y="242.387" width="5.18359" height="5.18359" fill="white"/>
<rect x="293.898" y="237.203" width="5.18359" height="5.18359" fill="white"/>
<rect x="299.082" y="232.019" width="5.18359" height="5.18359" fill="white"/>
<rect x="304.266" y="232.019" width="5.18359" height="5.18359" fill="white"/>
<rect x="288.715" y="247.57" width="5.18359" height="5.18359" fill="white"/>
<rect x="288.715" y="252.754" width="5.18359" height="5.18359" fill="white"/>
<rect x="283.531" y="263.121" width="5.18359" height="5.18359" fill="white"/>
<rect x="283.531" y="278.672" width="5.18359" height="5.18359" fill="#B7CF02"/>
<rect x="288.715" y="278.672" width="5.18359" height="5.18359" fill="#D8AC06"/>
<rect x="278.348" y="278.672" width="5.18359" height="5.18359" fill="#5BE601"/>
<rect x="283.531" y="299.406" width="5.18359" height="5.18359" fill="#B7CF02"/>
<rect x="288.715" y="299.406" width="5.18359" height="5.18359" fill="#D8AC06"/>
<rect x="278.348" y="299.406" width="5.18359" height="5.18359" fill="#5BE601"/>
<rect x="283.531" y="257.937" width="5.18359" height="5.18359" fill="white"/>
<rect x="278.348" y="257.937" width="5.18359" height="5.18359" fill="white"/>
<rect x="278.348" y="252.754" width="5.18359" height="5.18359" fill="white"/>
<rect x="293.898" y="252.754" width="5.18359" height="5.18359" fill="white"/>
<rect x="283.531" y="247.57" width="5.18359" height="5.18359" fill="white"/>
<rect x="309.449" y="221.652" width="5.18359" height="5.18359" fill="white"/>
<rect x="314.633" y="206.102" width="5.18359" height="5.18359" fill="white"/>
<rect x="314.633" y="232.019" width="5.18359" height="5.18359" fill="white"/>
<rect x="314.633" y="242.387" width="5.18359" height="5.18359" fill="white"/>
<rect x="309.449" y="242.387" width="5.18359" height="5.18359" fill="white"/>
<rect x="314.633" y="221.652" width="5.18359" height="5.18359" fill="white"/>
<rect x="319.816" y="221.652" width="5.18359" height="5.18359" fill="white"/>
<rect x="288.715" y="221.652" width="5.18359" height="5.18359" fill="white"/>
<rect x="309.449" y="257.937" width="5.18359" height="5.18359" fill="white"/>
<rect x="293.898" y="221.652" width="5.18359" height="5.18359" fill="white"/>
<rect x="299.082" y="221.652" width="5.18359" height="5.18359" fill="white"/>
<rect x="273.164" y="232.019" width="5.18359" height="5.18359" fill="white"/>
<rect x="273.164" y="237.203" width="5.18359" height="5.18359" fill="white"/>
<rect x="278.348" y="237.203" width="5.18359" height="5.18359" fill="white"/>
<rect x="319.816" y="226.836" width="5.18359" height="5.18359" fill="white"/>
<rect x="319.816" y="232.019" width="5.18359" height="5.18359" fill="white"/>
<rect x="319.816" y="237.203" width="5.18359" height="5.18359" fill="white"/>
<rect x="319.816" y="242.387" width="5.18359" height="5.18359" fill="white"/>
<rect x="319.816" y="247.57" width="5.18359" height="5.18359" fill="white"/>
<rect x="319.816" y="221.652" width="5.18359" height="5.18359" fill="white"/>
<rect x="319.816" y="226.836" width="5.18359" height="5.18359" fill="white"/>
<rect x="319.816" y="190.551" width="5.18359" height="5.18359" fill="white"/>
<rect x="319.816" y="195.734" width="5.18359" height="5.18359" fill="white"/>
<rect x="319.816" y="206.102" width="5.18359" height="5.18359" fill="white"/>
<rect x="314.633" y="216.469" width="5.18359" height="5.18359" fill="white"/>
<rect x="319.816" y="180.184" width="5.18359" height="5.18359" fill="white"/>
<rect x="319.816" y="185.367" width="5.18359" height="5.18359" fill="white"/>
<rect x="319.816" y="190.551" width="5.18359" height="5.18359" fill="white"/>
<rect x="319.816" y="195.734" width="5.18359" height="5.18359" fill="white"/>
<rect x="319.816" y="200.918" width="5.18359" height="5.18359" fill="white"/>
<rect x="288.715" y="216.469" width="5.18359" height="5.18359" fill="white"/>
<rect x="319.816" y="180.184" width="5.18359" height="5.18359" fill="white"/>
<rect x="319.816" y="185.367" width="5.18359" height="5.18359" fill="white"/>
<rect x="293.898" y="206.102" width="5.18359" height="5.18359" fill="white"/>
<rect x="309.449" y="206.102" width="5.18359" height="5.18359" fill="white"/>
<rect x="288.715" y="206.102" width="5.18359" height="5.18359" fill="white"/>
<rect x="288.715" y="190.551" width="5.18359" height="5.18359" fill="white"/>
<rect x="288.715" y="195.734" width="5.18359" height="5.18359" fill="white"/>
<rect x="288.715" y="200.918" width="5.18359" height="5.18359" fill="white"/>
<rect x="293.898" y="216.469" width="5.18359" height="5.18359" fill="white"/>
<rect x="288.715" y="180.184" width="5.18359" height="5.18359" fill="white"/>
<rect x="288.715" y="185.367" width="5.18359" height="5.18359" fill="white"/>
<rect x="288.715" y="190.551" width="5.18359" height="5.18359" fill="white"/>
<rect x="288.715" y="195.734" width="5.18359" height="5.18359" fill="white"/>
<rect x="288.715" y="200.918" width="5.18359" height="5.18359" fill="white"/>
<rect x="304.266" y="206.102" width="5.18359" height="5.18359" fill="white"/>
<rect x="299.082" y="206.102" width="5.18359" height="5.18359" fill="white"/>
<rect x="314.633" y="175" width="5.18359" height="5.18359" fill="white"/>
<rect x="319.816" y="175" width="5.18359" height="5.18359" fill="white"/>
<rect x="293.898" y="175" width="5.18359" height="5.18359" fill="white"/>
<rect x="309.449" y="175" width="5.18359" height="5.18359" fill="white"/>
<rect x="288.715" y="175" width="5.18359" height="5.18359" fill="white"/>
<rect x="304.266" y="175" width="5.18359" height="5.18359" fill="white"/>
<rect x="299.082" y="175" width="5.18359" height="5.18359" fill="white"/>
<rect x="309.449" y="190.551" width="5.18359" height="5.18359" fill="white"/>
<rect x="304.266" y="190.551" width="5.18359" height="5.18359" fill="white"/>
<rect x="299.082" y="190.551" width="5.18359" height="5.18359" fill="white"/>
<rect x="309.449" y="195.734" width="5.18359" height="5.18359" fill="white"/>
<rect x="304.266" y="195.734" width="5.18359" height="5.18359" fill="white"/>
<rect x="299.082" y="195.734" width="5.18359" height="5.18359" fill="white"/>
<rect x="309.449" y="185.367" width="5.18359" height="5.18359" fill="white"/>
<rect x="304.266" y="185.367" width="5.18359" height="5.18359" fill="white"/>
<rect x="299.082" y="185.367" width="5.18359" height="5.18359" fill="white"/>
<rect x="288.715" y="180.184" width="5.18359" height="5.18359" fill="white"/>
<rect x="288.715" y="185.367" width="5.18359" height="5.18359" fill="white"/>
<rect x="201.242" y="320.14" width="5.18359" height="5.18359" fill="white"/>
<rect x="206.426" y="320.14" width="5.18359" height="5.18359" fill="white"/>
<rect x="206.426" y="304.59" width="5.18359" height="5.18359" fill="white"/>
<rect x="206.426" y="309.773" width="5.18359" height="5.18359" fill="white"/>
<rect x="206.426" y="314.957" width="5.18359" height="5.18359" fill="white"/>
<rect x="206.426" y="294.222" width="5.18359" height="5.18359" fill="white"/>
<rect x="206.426" y="299.406" width="5.18359" height="5.18359" fill="white"/>
<rect x="180.508" y="320.14" width="5.18359" height="5.18359" fill="white"/>
<rect x="196.058" y="320.14" width="5.18359" height="5.18359" fill="white"/>
<rect x="175.324" y="320.14" width="5.18359" height="5.18359" fill="white"/>
<rect x="175.324" y="304.59" width="5.18359" height="5.18359" fill="white"/>
<rect x="175.324" y="309.773" width="5.18359" height="5.18359" fill="white"/>
<rect x="175.324" y="314.957" width="5.18359" height="5.18359" fill="white"/>
<rect x="190.875" y="320.14" width="5.18359" height="5.18359" fill="white"/>
<rect x="185.691" y="320.14" width="5.18359" height="5.18359" fill="white"/>
<rect x="201.242" y="289.039" width="5.18359" height="5.18359" fill="white"/>
<rect x="206.426" y="289.039" width="5.18359" height="5.18359" fill="white"/>
<rect x="180.508" y="289.039" width="5.18359" height="5.18359" fill="white"/>
<rect x="196.058" y="289.039" width="5.18359" height="5.18359" fill="white"/>
<rect x="175.324" y="289.039" width="5.18359" height="5.18359" fill="white"/>
<rect x="190.875" y="289.039" width="5.18359" height="5.18359" fill="white"/>
<rect x="185.691" y="289.039" width="5.18359" height="5.18359" fill="white"/>
<rect x="196.058" y="304.59" width="5.18359" height="5.18359" fill="white"/>
<rect x="190.875" y="304.59" width="5.18359" height="5.18359" fill="white"/>
<rect x="185.691" y="304.59" width="5.18359" height="5.18359" fill="white"/>
<rect x="196.058" y="309.773" width="5.18359" height="5.18359" fill="white"/>
<rect x="190.875" y="309.773" width="5.18359" height="5.18359" fill="white"/>
<rect x="185.691" y="309.773" width="5.18359" height="5.18359" fill="white"/>
<rect x="196.058" y="299.406" width="5.18359" height="5.18359" fill="white"/>
<rect x="190.875" y="299.406" width="5.18359" height="5.18359" fill="white"/>
<rect x="185.691" y="299.406" width="5.18359" height="5.18359" fill="white"/>
<rect x="175.324" y="294.222" width="5.18359" height="5.18359" fill="white"/>
<rect x="175.324" y="299.406" width="5.18359" height="5.18359" fill="white"/>
<rect x="200.918" y="206.102" width="5.18359" height="5.18359" fill="white"/>
<rect x="206.102" y="206.102" width="5.18359" height="5.18359" fill="white"/>
<rect x="206.102" y="190.551" width="5.18359" height="5.18359" fill="white"/>
<rect x="206.102" y="195.734" width="5.18359" height="5.18359" fill="white"/>
<rect x="206.102" y="200.918" width="5.18359" height="5.18359" fill="white"/>
<rect x="206.102" y="180.184" width="5.18359" height="5.18359" fill="white"/>
<rect x="206.102" y="185.367" width="5.18359" height="5.18359" fill="white"/>
<rect x="180.184" y="206.102" width="5.18359" height="5.18359" fill="white"/>
<rect x="195.734" y="206.102" width="5.18359" height="5.18359" fill="white"/>
<rect x="175" y="206.102" width="5.18359" height="5.18359" fill="white"/>
<rect x="175" y="190.551" width="5.18359" height="5.18359" fill="white"/>
<rect x="175" y="195.734" width="5.18359" height="5.18359" fill="white"/>
<rect x="175" y="200.918" width="5.18359" height="5.18359" fill="white"/>
<rect x="190.551" y="206.102" width="5.18359" height="5.18359" fill="white"/>
<rect x="185.367" y="206.102" width="5.18359" height="5.18359" fill="white"/>
<rect x="200.918" y="175" width="5.18359" height="5.18359" fill="white"/>
<rect x="206.102" y="175" width="5.18359" height="5.18359" fill="white"/>
<rect x="180.184" y="175" width="5.18359" height="5.18359" fill="white"/>
<rect x="195.734" y="175" width="5.18359" height="5.18359" fill="white"/>
<rect x="175" y="175" width="5.18359" height="5.18359" fill="white"/>
<rect x="190.551" y="175" width="5.18359" height="5.18359" fill="white"/>
<rect x="185.367" y="175" width="5.18359" height="5.18359" fill="white"/>
<rect x="195.734" y="190.551" width="5.18359" height="5.18359" fill="white"/>
<rect x="190.551" y="190.551" width="5.18359" height="5.18359" fill="white"/>
<rect x="185.367" y="190.551" width="5.18359" height="5.18359" fill="white"/>
<rect x="195.734" y="195.734" width="5.18359" height="5.18359" fill="white"/>
<rect x="190.551" y="195.734" width="5.18359" height="5.18359" fill="white"/>
<rect x="185.367" y="195.734" width="5.18359" height="5.18359" fill="white"/>
<rect x="195.734" y="185.367" width="5.18359" height="5.18359" fill="white"/>
<rect x="190.551" y="185.367" width="5.18359" height="5.18359" fill="white"/>
<rect x="185.367" y="185.367" width="5.18359" height="5.18359" fill="white"/>
<rect x="175" y="180.184" width="5.18359" height="5.18359" fill="white"/>
<rect x="175" y="185.367" width="5.18359" height="5.18359" fill="white"/>
<rect x="195.734" y="278.672" width="5.18359" height="5.18359" fill="white"/>
<rect x="200.918" y="278.672" width="5.18359" height="5.18359" fill="white"/>
<rect x="195.734" y="226.836" width="5.18359" height="5.18359" fill="white"/>
<rect x="211.285" y="263.121" width="5.18359" height="5.18359" fill="white"/>
<rect x="216.469" y="268.305" width="5.18359" height="5.18359" fill="white"/>
<rect x="200.918" y="247.57" width="5.18359" height="5.18359" fill="white"/>
<rect x="216.469" y="242.387" width="5.18359" height="5.18359" fill="#01A2FD"/>
<rect x="180.184" y="278.672" width="5.18359" height="5.18359" fill="white"/>
<rect x="190.551" y="278.672" width="5.18359" height="5.18359" fill="white"/>
<rect x="175" y="278.672" width="5.18359" height="5.18359" fill="white"/>
<rect x="180.184" y="257.937" width="5.18359" height="5.18359" fill="white"/>
<rect x="200.918" y="273.488" width="5.18359" height="5.18359" fill="white"/>
<rect x="180.184" y="263.121" width="5.18359" height="5.18359" fill="white"/>
<rect x="185.367" y="273.488" width="5.18359" height="5.18359" fill="white"/>
<rect x="206.102" y="278.672" width="5.18359" height="5.18359" fill="white"/>
<rect x="216.145" y="206.102" width="5.18359" height="5.18359" fill="#01A2FD"/>
<rect x="216.469" y="180.184" width="5.18359" height="5.18359" fill="#01A1FD"/>
<rect x="237.203" y="180.184" width="5.18359" height="5.18359" fill="#0083FB"/>
<rect x="232.02" y="185.367" width="5.18359" height="5.18359" fill="#01A2FD"/>
<rect x="242.387" y="175" width="5.18359" height="5.18359" fill="#0083FB"/>
<rect x="242.387" y="180.184" width="5.18359" height="5.18359" fill="#0083FB"/>
<rect x="252.754" y="180.184" width="5.18359" height="5.18359" fill="#000AFF"/>
<rect x="257.937" y="175" width="5.18359" height="5.18359" fill="#0038FF"/>
<rect x="263.121" y="180.184" width="5.18359" height="5.18359" fill="white"/>
<rect x="268.304" y="175" width="5.18359" height="5.18359" fill="white"/>
<rect x="273.488" y="180.184" width="5.18359" height="5.18359" fill="white"/>
<rect x="257.937" y="180.184" width="5.18359" height="5.18359" fill="#0038FF"/>
<rect x="268.304" y="190.551" width="5.18359" height="5.18359" fill="white"/>
<rect x="278.672" y="190.551" width="5.18359" height="5.18359" fill="white"/>
<rect x="273.488" y="190.551" width="5.18359" height="5.18359" fill="white"/>
<rect x="263.121" y="195.734" width="5.18359" height="5.18359" fill="white"/>
<rect x="268.304" y="195.734" width="5.18359" height="5.18359" fill="white"/>
<rect x="252.754" y="190.551" width="5.18359" height="5.18359" fill="#0083FB"/>
<rect x="242.387" y="190.551" width="5.18359" height="5.18359" fill="#0083FB"/>
<rect x="257.937" y="190.551" width="5.18359" height="5.18359" fill="#0038FF"/>
<rect x="263.121" y="185.367" width="5.18359" height="5.18359" fill="white"/>
<rect x="273.488" y="185.367" width="5.18359" height="5.18359" fill="white"/>
<rect x="278.672" y="185.367" width="5.18359" height="5.18359" fill="white"/>
<rect x="226.836" y="175" width="5.18359" height="5.18359" fill="#00A2FD"/>
<rect x="232.02" y="175" width="5.18359" height="5.18359" fill="#00ABF5"/>
<rect x="216.145" y="200.918" width="5.18359" height="5.18359" fill="#01A2FD"/>
<rect x="216.145" y="211.285" width="5.18359" height="5.18359" fill="#00A3FB"/>
<rect x="185.367" y="232.019" width="5.18359" height="5.18359" fill="white"/>
<rect x="221.652" y="185.367" width="5.18359" height="5.18359" fill="#01A2FD"/>
<rect x="221.328" y="200.918" width="5.18359" height="5.18359" fill="#01A2FD"/>
<rect x="226.512" y="206.102" width="5.18359" height="5.18359" fill="#01A2FD"/>
<rect x="221.328" y="221.652" width="5.18359" height="5.18359" fill="#01A2FD"/>
<rect x="185.367" y="252.754" width="5.18359" height="5.18359" fill="white"/>
<rect x="200.918" y="257.937" width="5.18359" height="5.18359" fill="white"/>
<rect x="216.469" y="237.203" width="5.18359" height="5.18359" fill="#01A2FD"/>
<rect x="216.469" y="232.019" width="5.18359" height="5.18359" fill="#01A2FD"/>
<rect x="206.102" y="257.937" width="5.18359" height="5.18359" fill="white"/>
<rect x="226.836" y="257.937" width="5.18359" height="5.18359" fill="#01A2FD"/>
<rect x="216.469" y="226.836" width="5.18359" height="5.18359" fill="#01A2FD"/>
<rect x="211.285" y="226.836" width="5.18359" height="5.18359" fill="white"/>
<rect x="175" y="242.387" width="5.18359" height="5.18359" fill="white"/>
<rect x="221.328" y="216.469" width="5.18359" height="5.18359" fill="#01A2FD"/>
<path d="M216.469 257.937H221.652V263.121H216.469V257.937Z" fill="#01A2FD"/>
<rect x="206.102" y="268.305" width="5.18359" height="5.18359" fill="white"/>
<rect x="206.102" y="247.57" width="5.18359" height="5.18359" fill="white"/>
<rect x="211.285" y="232.019" width="5.18359" height="5.18359" fill="white"/>
<rect x="190.551" y="226.836" width="5.18359" height="5.18359" fill="white"/>
<rect x="221.652" y="190.551" width="5.18359" height="5.18359" fill="#01A2FD"/>
<rect x="226.512" y="211.285" width="5.18359" height="5.18359" fill="#01A2FD"/>
<rect x="211.285" y="273.488" width="5.18359" height="5.18359" fill="white"/>
<rect x="216.469" y="252.754" width="5.18359" height="5.18359" fill="#01A2FD"/>
<rect x="195.734" y="273.488" width="5.18359" height="5.18359" fill="white"/>
<rect x="216.469" y="247.57" width="5.18359" height="5.18359" fill="#01A2FD"/>
<rect x="206.102" y="237.203" width="5.18359" height="5.18359" fill="white"/>
<rect x="190.551" y="268.305" width="5.18359" height="5.18359" fill="white"/>
<rect x="221.652" y="257.937" width="5.18359" height="5.18359" fill="#01A2FD"/>
<rect x="175" y="263.121" width="5.18359" height="5.18359" fill="white"/>
<rect x="185.367" y="221.652" width="5.18359" height="5.18359" fill="white"/>
<rect x="211.285" y="216.469" width="5.18359" height="5.18359" fill="white"/>
<rect x="195.734" y="216.469" width="5.18359" height="5.18359" fill="white"/>
<rect x="180.184" y="221.652" width="5.18359" height="5.18359" fill="white"/>
<rect x="195.734" y="211.285" width="5.18359" height="5.18359" fill="white"/>
<rect x="206.102" y="216.469" width="5.18359" height="5.18359" fill="white"/>
<rect x="200.918" y="216.469" width="5.18359" height="5.18359" fill="white"/>
<rect x="195.734" y="247.57" width="5.18359" height="5.18359" fill="white"/>
<rect x="206.102" y="226.836" width="5.18359" height="5.18359" fill="white"/>
<rect x="200.918" y="226.836" width="5.18359" height="5.18359" fill="white"/>
<rect x="226.512" y="221.652" width="5.18359" height="5.18359" fill="#01A2FD"/>
<rect x="180.184" y="252.754" width="5.18359" height="5.18359" fill="white"/>
<rect x="190.551" y="247.57" width="5.18359" height="5.18359" fill="white"/>
<rect x="185.367" y="242.387" width="5.18359" height="5.18359" fill="white"/>
<rect x="190.551" y="237.203" width="5.18359" height="5.18359" fill="white"/>
<rect x="180.184" y="237.203" width="5.18359" height="5.18359" fill="white"/>
<rect x="185.367" y="226.836" width="5.18359" height="5.18359" fill="white"/>
<rect x="185.367" y="237.203" width="5.18359" height="5.18359" fill="white"/>
<rect x="283.531" y="232.019" width="5.18359" height="5.18359" fill="white"/>
<rect x="283.531" y="226.836" width="5.18359" height="5.18359" fill="white"/>
<rect x="278.348" y="226.836" width="5.18359" height="5.18359" fill="white"/>
<rect x="283.531" y="221.652" width="5.18359" height="5.18359" fill="white"/>
<rect x="319.816" y="283.855" width="5.18359" height="5.18359" fill="#FD1395"/>
<rect x="319.816" y="289.039" width="5.18359" height="5.18359" fill="#FE257C"/>
<rect x="319.816" y="294.222" width="5.18359" height="5.18359" fill="#FE316D"/>
<rect x="319.816" y="314.957" width="5.18359" height="5.18359" fill="#FD7034"/>
<rect x="283.531" y="309.773" width="5.18359" height="5.18359" fill="#B7CF02"/>
<rect x="319.816" y="309.773" width="5.18359" height="5.18359" fill="#FD5A43"/>
<rect x="278.348" y="314.957" width="5.18359" height="5.18359" fill="#5BE601"/>
<rect x="314.633" y="320.14" width="5.18359" height="5.18359" fill="#FA9516"/>
<rect x="216.469" y="299.406" width="5.18359" height="5.18359" fill="#00A1FA"/>
<rect x="216.469" y="294.222" width="5.18359" height="5.18359" fill="#00A2FB"/>
<rect x="262.797" y="289.039" width="5.18359" height="5.18359" fill="#04EE02"/>
<rect x="247.57" y="309.773" width="5.18359" height="5.18359" fill="#01DCA5"/>
<rect x="237.203" y="304.59" width="5.18359" height="5.18359" fill="#00CDC9"/>
<rect x="257.937" y="309.773" width="5.18359" height="5.18359" fill="#03EE03"/>
<rect x="257.937" y="304.59" width="5.18359" height="5.18359" fill="#03EE03"/>
<rect x="263.121" y="304.59" width="5.18359" height="5.18359" fill="#04EE02"/>
<rect x="252.754" y="314.957" width="5.18359" height="5.18359" fill="#04EE02"/>
<rect x="232.02" y="314.957" width="5.18359" height="5.18359" fill="#00E683"/>
<rect x="273.164" y="299.406" width="5.18359" height="5.18359" fill="#5BE601"/>
<rect x="273.164" y="289.039" width="5.18359" height="5.18359" fill="#5BE601"/>
<rect x="273.164" y="294.222" width="5.18359" height="5.18359" fill="#5BE601"/>
<rect x="267.98" y="294.222" width="5.18359" height="5.18359" fill="#5BE601"/>
<rect x="257.613" y="289.039" width="5.18359" height="5.18359" fill="#03EE03"/>
<rect x="267.98" y="278.672" width="5.18359" height="5.18359" fill="#5BE601"/>
<rect x="267.98" y="283.855" width="5.18359" height="5.18359" fill="#5BE601"/>
<rect x="257.613" y="273.488" width="5.18359" height="5.18359" fill="#03EE03"/>
<rect x="262.797" y="278.672" width="5.18359" height="5.18359" fill="#27EB00"/>
<rect x="278.348" y="273.488" width="5.18359" height="5.18359" fill="#B219B5"/>
<rect x="242.387" y="299.406" width="5.18359" height="5.18359" fill="#01DCA5"/>
<rect x="257.613" y="283.855" width="5.18359" height="5.18359" fill="#03EE03"/>
<rect x="247.57" y="294.222" width="5.18359" height="5.18359" fill="#01DCA5"/>
<rect x="242.387" y="294.222" width="5.18359" height="5.18359" fill="#01DCA5"/>
<rect x="247.57" y="289.039" width="5.18359" height="5.18359" fill="#01DCA5"/>
<rect x="257.613" y="278.672" width="5.18359" height="5.18359" fill="#03EE03"/>
<rect x="262.797" y="268.305" width="5.18359" height="5.18359" fill="white"/>
<rect x="267.98" y="257.937" width="5.18359" height="5.18359" fill="white"/>
<rect x="267.98" y="263.121" width="5.18359" height="5.18359" fill="white"/>
<rect x="267.98" y="268.305" width="5.18359" height="5.18359" fill="white"/>
<rect x="262.797" y="257.937" width="5.18359" height="5.18359" fill="white"/>
<rect x="257.613" y="263.121" width="5.18359" height="5.18359" fill="#0CED01"/>
<rect x="257.613" y="257.937" width="5.18359" height="5.18359" fill="#0CED01"/>
<rect x="267.98" y="247.57" width="5.18359" height="5.18359" fill="white"/>
<rect x="267.98" y="252.754" width="5.18359" height="5.18359" fill="white"/>
<rect x="262.797" y="247.57" width="5.18359" height="5.18359" fill="white"/>
<rect x="257.613" y="247.57" width="5.18359" height="5.18359" fill="#000AFF"/>
<rect x="257.613" y="242.387" width="5.18359" height="5.18359" fill="#000AFF"/>
<rect x="252.43" y="242.387" width="5.18359" height="5.18359" fill="#000AFF"/>
<rect x="247.246" y="242.387" width="5.18359" height="5.18359" fill="#000AFF"/>
<rect x="273.164" y="273.488" width="5.18359" height="5.18359" fill="#B219B5"/>
<rect x="216.469" y="289.039" width="5.18359" height="5.18359" fill="#00A1FB"/>
<rect x="232.02" y="299.406" width="5.18359" height="5.18359" fill="#00CDC9"/>
<rect x="232.02" y="294.222" width="5.18359" height="5.18359" fill="#00CDC9"/>
<rect x="232.02" y="289.039" width="5.18359" height="5.18359" fill="#00CDC9"/>
<rect x="216.469" y="283.855" width="5.18359" height="5.18359" fill="#01A1FA"/>
<rect x="216.469" y="278.672" width="5.18359" height="5.18359" fill="#029EF3"/>
<rect x="252.754" y="299.406" width="5.18359" height="5.18359" fill="#04EE02"/>
<rect x="221.652" y="309.773" width="5.18359" height="5.18359" fill="#00C9D3"/>
<rect x="221.652" y="314.957" width="5.18359" height="5.18359" fill="#00D5C2"/>
<rect x="247.57" y="320.14" width="5.18359" height="5.18359" fill="#01DCA5"/>
<rect x="278.348" y="320.14" width="5.18359" height="5.18359" fill="#5BE601"/>
<rect x="262.797" y="320.14" width="5.18359" height="5.18359" fill="#00EA58"/>
<rect x="273.164" y="320.14" width="5.18359" height="5.18359" fill="#5BE601"/>
<rect x="267.98" y="314.957" width="5.18359" height="5.18359" fill="#5BE601"/>
<rect x="267.98" y="320.14" width="5.18359" height="5.18359" fill="#5BE601"/>
<rect x="273.164" y="309.773" width="5.18359" height="5.18359" fill="#5BE601"/>
<rect x="273.164" y="283.855" width="5.18359" height="5.18359" fill="#5BE601"/>
<rect x="226.836" y="278.672" width="5.18359" height="5.18359" fill="#01D3C2"/>
<rect x="237.203" y="283.855" width="5.18359" height="5.18359" fill="#00CDC9"/>
<rect x="232.02" y="283.855" width="5.18359" height="5.18359" fill="#00CDC9"/>
<rect x="232.02" y="278.672" width="5.18359" height="5.18359" fill="#00CDC9"/>
<rect x="226.836" y="273.488" width="5.18359" height="5.18359" fill="#01D3C2"/>
<rect x="232.02" y="273.488" width="5.18359" height="5.18359" fill="#00CDC9"/>
<rect x="232.02" y="268.305" width="5.18359" height="5.18359" fill="#00CDC9"/>
<rect x="237.203" y="268.305" width="5.18359" height="5.18359" fill="#00CDC9"/>
<rect x="242.063" y="257.937" width="5.18359" height="5.18359" fill="#01DCA5"/>
<rect x="242.063" y="252.754" width="5.18359" height="5.18359" fill="#01DCA5"/>
<rect x="242.063" y="247.57" width="5.18359" height="5.18359" fill="#04AEF3"/>
<rect x="247.246" y="247.57" width="5.18359" height="5.18359" fill="#000AFF"/>
<rect x="232.02" y="263.121" width="5.18359" height="5.18359" fill="#00CDC9"/>
<rect x="262.797" y="232.019" width="5.18359" height="5.18359" fill="white"/>
<rect x="262.797" y="226.836" width="5.18359" height="5.18359" fill="white"/>
<rect x="267.98" y="237.203" width="5.18359" height="5.18359" fill="white"/>
<rect x="267.98" y="232.019" width="5.18359" height="5.18359" fill="white"/>
<rect x="267.98" y="226.836" width="5.18359" height="5.18359" fill="white"/>
<rect x="267.98" y="221.652" width="5.18359" height="5.18359" fill="white"/>
<rect x="267.98" y="216.469" width="5.18359" height="5.18359" fill="white"/>
<rect x="267.98" y="211.285" width="5.18359" height="5.18359" fill="white"/>
<rect x="267.98" y="206.102" width="5.18359" height="5.18359" fill="white"/>
<rect x="273.164" y="200.918" width="5.18359" height="5.18359" fill="white"/>
<rect x="278.348" y="206.102" width="5.18359" height="5.18359" fill="white"/>
<rect x="278.348" y="216.469" width="5.18359" height="5.18359" fill="white"/>
<rect x="247.246" y="226.836" width="5.18359" height="5.18359" fill="#00A2FA"/>
<rect x="252.43" y="226.836" width="5.18359" height="5.18359" fill="#00A2FA"/>
<rect x="252.43" y="221.652" width="5.18359" height="5.18359" fill="#00A2FA"/>
<rect x="257.613" y="221.652" width="5.18359" height="5.18359" fill="#000AFF"/>
<rect x="247.246" y="221.652" width="5.18359" height="5.18359" fill="#00A2FA"/>
<rect x="242.063" y="226.836" width="5.18359" height="5.18359" fill="#04AEF3"/>
<rect x="232.02" y="232.019" width="5.18359" height="5.18359" fill="#04AEF3"/>
<rect x="237.203" y="232.019" width="5.18359" height="5.18359" fill="#04AEF3"/>
<rect x="226.836" y="232.019" width="5.18359" height="5.18359" fill="#04AEF3"/>
<rect x="232.02" y="237.203" width="5.18359" height="5.18359" fill="#04AEF3"/>
<rect x="237.203" y="237.203" width="5.18359" height="5.18359" fill="#04AEF3"/>
<rect x="232.02" y="242.387" width="5.18359" height="5.18359" fill="#04AEF3"/>
<rect x="237.203" y="242.387" width="5.18359" height="5.18359" fill="#04AEF3"/>
<rect x="226.836" y="237.203" width="5.18359" height="5.18359" fill="#04AEF3"/>
<rect x="221.652" y="232.019" width="5.18359" height="5.18359" fill="#02D0C7"/>
<rect x="221.652" y="237.203" width="5.18359" height="5.18359" fill="#02D0C7"/>
<rect x="236.879" y="221.652" width="5.18359" height="5.18359" fill="#04AEF3"/>
<rect x="247.246" y="216.469" width="5.18359" height="5.18359" fill="#00A2FA"/>
<rect x="247.246" y="211.285" width="5.18359" height="5.18359" fill="#00A2FA"/>
<rect x="247.246" y="206.102" width="5.18359" height="5.18359" fill="#000AFF"/>
<rect x="247.246" y="200.918" width="5.18359" height="5.18359" fill="#000AFF"/>
<rect x="247.246" y="195.734" width="5.18359" height="5.18359" fill="#000AFF"/>
<rect x="252.43" y="200.918" width="5.18359" height="5.18359" fill="#000AFF"/>
<rect x="252.43" y="195.734" width="5.18359" height="5.18359" fill="#000AFF"/>
<rect x="236.879" y="211.285" width="5.18359" height="5.18359" fill="#04AEF3"/>
<rect x="231.696" y="211.285" width="5.18359" height="5.18359" fill="#04AEF3"/>
<rect x="236.879" y="206.102" width="5.18359" height="5.18359" fill="#04AEF3"/>
<rect x="236.879" y="200.918" width="5.18359" height="5.18359" fill="#04AEF3"/>
<rect x="236.879" y="195.734" width="5.18359" height="5.18359" fill="#04AEF3"/>
<rect x="242.063" y="195.734" width="5.18359" height="5.18359" fill="#04AEF3"/>
<rect x="257.613" y="206.102" width="5.18359" height="5.18359" fill="#000AFF"/>
<rect x="252.43" y="211.285" width="5.18359" height="5.18359" fill="#000AFF"/>
<rect x="262.797" y="211.285" width="5.18359" height="5.18359" fill="white"/>
<rect x="257.613" y="200.918" width="5.18359" height="5.18359" fill="#000AFF"/>
<rect x="247.57" y="268.305" width="5.18359" height="5.18359" fill="#01DCA5"/>
<rect x="247.57" y="263.121" width="5.18359" height="5.18359" fill="#01DCA5"/>
<rect x="252.43" y="252.754" width="5.18359" height="5.18359" fill="#0CED01"/>
<rect x="226.836" y="252.754" width="5.18359" height="5.18359" fill="#02D0C7"/>
<rect x="232.02" y="252.754" width="5.18359" height="5.18359" fill="#02D0C7"/>
<rect x="237.203" y="278.672" width="5.18359" height="5.18359" fill="#00CDC9"/>
<rect x="242.387" y="283.855" width="5.18359" height="5.18359" fill="#01DCA5"/>
<rect x="247.57" y="278.672" width="5.18359" height="5.18359" fill="#01DCA5"/>
<rect x="232.02" y="309.773" width="5.18359" height="5.18359" fill="#01D7BA"/>
<rect x="237.203" y="314.957" width="5.18359" height="5.18359" fill="#00CDC9"/>
<rect x="226.836" y="314.957" width="5.18359" height="5.18359" fill="#00E3A5"/>
<rect x="226.836" y="309.773" width="5.18359" height="5.18359" fill="#00E1AE"/>
<rect x="221.652" y="304.59" width="5.18359" height="5.18359" fill="#00C2DD"/>
<rect x="252.754" y="320.14" width="5.18359" height="5.18359" fill="#00EA58"/>
</svg>
